<?xml version="1.0" encoding="UTF-8"?>
<svg id="Layer_2" data-name="Layer 2" xmlns="http://www.w3.org/2000/svg" viewBox="0 0 200.49 200.49">
  <defs>
    <style>
      .cls-1, .cls-2 {
        fill: #231f20;
      }

      .cls-1, .cls-3 {
        stroke: #231f20;
        stroke-miterlimit: 10;
      }

      .cls-2 {
        stroke-width: 0px;
      }

      .cls-3 {
        fill: #be1e2d;
      }
    </style>
  </defs>
  <g id="Layer_1-2" data-name="Layer 1">
    <circle class="cls-3" cx="100.24" cy="100.24" r="99.74"/>
    <circle class="cls-3" cx="100.24" cy="100.24" r="99.74"/>
    <polyline class="cls-1" points="136.14 7.16 113.33 92.32 19.34 85.74"/>
    <polyline class="cls-1" points="195.12 126.73 111.4 115.05 122.34 21.79"/>
    <polyline class="cls-1" points="69.37 196.06 81.49 109.43 182.56 119.76"/>
    <polyline class="cls-1" points="3.58 76.02 90.24 87.93 80.15 189.03"/>
    <rect class="cls-1" x="81.21" y="89.18" width="40.59" height="26.83"/>
    <path class="cls-2" d="m39.25,92.37c3.22,0,3.22-5,0-5s-3.22,5,0,5h0Z"/>
    <path class="cls-2" d="m38.62,89.05c.4-.76.87-1.49,1.39-2.17l-.39.51c.8-1.03,1.72-1.96,2.76-2.76l-.51.39c.24-.18.48-.35.72-.52.54-.37.97-.84,1.15-1.49.16-.6.09-1.4-.25-1.93s-.86-1-1.49-1.15-1.37-.13-1.93.25c-2.39,1.63-4.41,3.78-5.77,6.35-.31.59-.43,1.27-.25,1.93.16.58.61,1.21,1.15,1.49.58.31,1.28.46,1.93.25.6-.2,1.19-.57,1.49-1.15h0Z"/>
    <path class="cls-2" d="m36.56,87.67c.81-1.59,1.76-3.1,2.86-4.52l-.39.51c.83-1.07,1.73-2.07,2.7-3.01s.98-2.63,0-3.54-2.53-.97-3.54,0c-2.4,2.32-4.44,5.06-5.95,8.03-.59,1.16-.34,2.76.9,3.42,1.14.6,2.79.35,3.42-.9h0Z"/>
    <path class="cls-2" d="m34.27,86.19c.44-.91.92-1.8,1.46-2.65.26-.42.54-.82.82-1.23.13-.17.4-.43.46-.63-.06.18-.31.4-.06.08.08-.1.16-.2.24-.3.63-.76,1.29-1.49,2-2.17.37-.36.76-.71,1.15-1.04.18-.15.36-.3.54-.45.09-.07.24-.15.3-.24l-.26.2c.08-.06.17-.13.25-.19.54-.4.96-.82,1.15-1.49.16-.6.09-1.4-.25-1.93-.67-1.03-2.3-1.73-3.42-.9-3.68,2.74-6.73,6.25-8.71,10.41-.29.62-.44,1.25-.25,1.93.16.58.61,1.21,1.15,1.49,1.12.59,2.82.36,3.42-.9h0Z"/>
    <path class="cls-2" d="m34.42,84.94c.19-.71.41-1.41.68-2.1.03-.08.31-.69.05-.14.07-.15.14-.3.21-.46.16-.33.32-.66.49-.99.35-.65.73-1.28,1.14-1.88.09-.14.19-.27.29-.41.04-.06.43-.57.22-.31s.14-.17.18-.22c.13-.16.26-.31.39-.46.48-.56.99-1.09,1.53-1.59.24-.23.49-.45.75-.67.15-.13.31-.25.46-.38-.33.27-.04.03.13-.1,1.19-.87,2.47-1.6,3.81-2.19,1.2-.53,1.57-2.38.9-3.42-.8-1.25-2.13-1.46-3.42-.9-6.16,2.7-10.9,8.4-12.64,14.87-.34,1.26.42,2.77,1.75,3.08s2.71-.39,3.08-1.75h0Z"/>
    <path class="cls-2" d="m34.91,84.73c4.32-6.29,9.89-12.11,16-16.66,1.08-.8,1.63-2.16.9-3.42-.62-1.07-2.33-1.71-3.42-.9-6.92,5.15-12.91,11.34-17.8,18.46-.76,1.11-.21,2.77.9,3.42,1.24.72,2.65.22,3.42-.9h0Z"/>
    <path class="cls-2" d="m38.28,84.04c4.56-8.1,11.05-14.99,18.89-19.98,1.14-.72,1.6-2.22.9-3.42-.66-1.13-2.28-1.62-3.42-.9-8.56,5.44-15.71,12.93-20.69,21.77-1.58,2.81,2.74,5.33,4.32,2.52h0Z"/>
    <path class="cls-2" d="m37.07,79.42c.32.15.49.39.52.72.08.39.1.42.08.08-.19.2,0,.04.07-.2.06-.16.05-.17-.02-.02l.11-.24c.12-.25.28-.48.42-.72.61-.96,1.26-1.9,1.94-2.81,1.33-1.78,2.85-3.44,4.44-4.99,3.29-3.19,7.05-5.79,11.15-7.83,1.21-.6,1.54-2.31.9-3.42-.72-1.23-2.21-1.5-3.42-.9-5.04,2.5-9.67,5.91-13.54,10-1.93,2.04-3.7,4.26-5.26,6.6-1.73,2.59-2.86,5.83.08,8.04,1.08.81,2.79.17,3.42-.9.75-1.28.18-2.61-.9-3.42h0Z"/>
    <path class="cls-2" d="m38.95,82.68c5.48-10.85,13.96-19.95,24.44-26.12,2.77-1.63.26-5.95-2.52-4.32-11.17,6.58-20.38,16.34-26.23,27.92-1.45,2.87,2.87,5.4,4.32,2.52h0Z"/>
    <path class="cls-2" d="m39.49,79.94c7.81-14.36,23.55-21.65,37.76-28.16,1.23-.56,1.53-2.34.9-3.42-.74-1.26-2.19-1.46-3.42-.9-11.77,5.39-24.03,11.18-32.96,20.84-2.55,2.76-4.79,5.81-6.59,9.11-1.54,2.83,2.78,5.35,4.32,2.52h0Z"/>
    <path class="cls-2" d="m38.88,80.59c4.14-8.03,11.02-13.63,18.58-18.3,8.43-5.2,17.13-10,25.71-14.97,2.78-1.61.27-5.93-2.52-4.32-8.83,5.11-17.82,10.02-26.46,15.44-7.96,4.99-15.25,11.14-19.62,19.62-1.47,2.86,2.84,5.39,4.32,2.52h0Z"/>
    <path class="cls-2" d="m40.82,77.43c.44-1.95,1.65-3.45,2.98-4.89,1.42-1.55,2.91-3.04,4.43-4.49,3.04-2.9,6.26-5.63,9.65-8.12,6.77-4.98,14.15-9.19,21.93-12.37,1.25-.51,2.13-1.66,1.75-3.08-.32-1.18-1.82-2.26-3.08-1.75-13.21,5.41-25.31,13.31-35.44,23.4-2.85,2.84-6.12,5.91-7.04,9.98-.71,3.13,4.11,4.47,4.82,1.33h0Z"/>
    <path class="cls-2" d="m45.11,71.98c0-1.84,1.33-3.26,2.57-4.48,1.62-1.59,3.36-3.06,5.09-4.51,3.5-2.93,7.15-5.65,10.95-8.18,7.63-5.09,15.8-9.4,24.34-12.76,1.26-.49,2.13-1.67,1.75-3.08-.33-1.2-1.81-2.24-3.08-1.75-14.62,5.75-28.16,13.95-39.96,24.34-3.14,2.76-6.66,5.88-6.66,10.41,0,3.22,5,3.22,5,0h0Z"/>
    <path class="cls-2" d="m48.29,70.01c10.98-10.64,23.87-19.2,37.92-25.23,3.94-1.69,7.98-3.14,12.08-4.41,3.06-.95,1.76-5.78-1.33-4.82-15.24,4.72-29.47,12.22-42.03,22.05-3.55,2.78-6.94,5.74-10.17,8.88-2.31,2.24,1.22,5.78,3.54,3.54h0Z"/>
    <path class="cls-2" d="m50.66,69.2c.18-1.34,1.98-2.6,2.89-3.42,1.47-1.33,2.97-2.62,4.5-3.88,2.95-2.43,6.02-4.71,9.19-6.85,6.56-4.45,13.53-8.3,20.79-11.48,4.02-1.76,8.14-3.28,12.31-4.61,3.05-.97,1.75-5.8-1.33-4.82-16.23,5.17-31.35,13.42-44.5,24.24-1.84,1.52-3.67,3.07-5.41,4.71-1.84,1.73-3.11,3.59-3.45,6.12-.18,1.34,1.28,2.5,2.5,2.5,1.5,0,2.32-1.16,2.5-2.5h0Z"/>
    <path class="cls-2" d="m61.59,59.93c12.16-12.42,27.97-20.85,45.04-24.1,1.33-.25,2.08-1.85,1.75-3.08-.38-1.39-1.74-2-3.08-1.75-13.87,2.64-27,8.66-38.16,17.3-3.21,2.49-6.25,5.19-9.09,8.09-2.25,2.3,1.28,5.84,3.54,3.54h0Z"/>
    <path class="cls-2" d="m65.88,55.87c4.22-5.86,10.74-9.58,17.23-12.41,7.75-3.38,15.95-5.87,24.16-7.85,3.13-.75,1.8-5.58-1.33-4.82-8.77,2.11-17.46,4.86-25.72,8.51-7.24,3.2-13.98,7.55-18.66,14.04-.79,1.1-.19,2.78.9,3.42,1.26.74,2.63.2,3.42-.9h0Z"/>
    <path class="cls-2" d="m59.42,61.9c10.03-10.56,22.59-18.63,36.4-23.28,4-1.35,8.09-2.41,12.24-3.2,1.33-.25,2.08-1.85,1.75-3.08-.38-1.39-1.74-2-3.08-1.75-15.11,2.86-29.34,9.53-41.37,19.08-3.36,2.67-6.52,5.57-9.48,8.68-2.22,2.33,1.31,5.87,3.54,3.54h0Z"/>
    <path class="cls-2" d="m62.98,54.82c-.16.64-.17.82-.02.57.17-.18.35-.35.54-.51.32-.27.66-.5,1-.75.88-.65,1.76-1.28,2.65-1.91,1.67-1.16,3.37-2.29,5.09-3.36,3.51-2.19,7.14-4.2,10.87-6.01,7.45-3.63,15.3-6.41,23.35-8.38,3.12-.76,1.8-5.59-1.33-4.82-9.03,2.21-17.81,5.46-26.11,9.66-4.09,2.06-8.05,4.36-11.87,6.89-1.94,1.28-3.84,2.62-5.7,4.01-2.05,1.53-3.85,3.15-3.29,5.95.27,1.32,1.84,2.09,3.08,1.75,1.38-.38,2.01-1.75,1.75-3.08h0Z"/>
    <path class="cls-2" d="m66.83,56.2c12.66-11.59,28.07-19.94,44.67-24.29,3.11-.82,1.79-5.64-1.33-4.82-17.43,4.57-33.59,13.42-46.87,25.58-2.38,2.18,1.16,5.71,3.54,3.54h0Z"/>
    <path class="cls-2" d="m38.36,85.7c.03-.44.06-.88.12-1.32-.03.27,0-.01.02-.12.04-.22.07-.44.11-.65.16-.82.36-1.64.61-2.44.12-.38.25-.76.39-1.13.08-.21.16-.41.24-.62-.12.29.07-.17.11-.26.35-.77.73-1.51,1.16-2.24,1.6-2.7,3.81-5.01,6.41-6.67,1.14-.72,1.6-2.22.9-3.42-.66-1.13-2.28-1.62-3.42-.9-6.8,4.33-11.14,11.74-11.65,19.77-.09,1.35,1.21,2.5,2.5,2.5,1.43,0,2.41-1.15,2.5-2.5h0Z"/>
    <path class="cls-2" d="m35.75,76.74l-.18.14,1.26-.34h-.23c.42.12.84.23,1.26.35l.09.11.64,1.1c-.42,1.13-.41,1.37.03.73l.27-.33c.32-.38.64-.76.96-1.14.55-.65,1.11-1.28,1.68-1.92,1.18-1.32,2.4-2.6,3.65-3.86,2.45-2.46,5.02-4.8,7.7-7.01,5.36-4.41,11.2-8.24,17.34-11.48,2.85-1.51.32-5.82-2.52-4.32-7.58,4.01-14.67,8.93-21.1,14.61-3.19,2.81-6.21,5.82-9.03,9-.66.74-1.31,1.49-1.94,2.25-.73.87-1.66,1.78-1.94,2.91-.61,2.47,2.23,5.26,4.57,3.5,1.08-.81,1.63-2.16.9-3.42-.62-1.06-2.33-1.71-3.42-.9h0Z"/>
    <path class="cls-2" d="m46.34,74.68c.38-1.99,1.95-3.26,3.39-4.55,1.79-1.6,3.61-3.18,5.45-4.72,3.52-2.95,7.14-5.78,10.86-8.49,7.65-5.57,15.67-10.63,23.98-15.15,2.83-1.54.31-5.86-2.52-4.32-13.58,7.39-26.36,16.23-38.08,26.32-3.01,2.59-7.1,5.42-7.89,9.58-.25,1.33.37,2.7,1.75,3.08,1.22.34,2.82-.41,3.08-1.75h0Z"/>
    <path class="cls-2" d="m55.79,63.72c11.9-10.68,25.2-19.73,39.48-26.9,3.98-2,8.02-3.86,12.14-5.55,1.25-.51,2.13-1.66,1.75-3.08-.32-1.18-1.82-2.26-3.08-1.75-15.33,6.3-29.78,14.54-42.91,24.66-3.75,2.89-7.39,5.91-10.92,9.07-2.4,2.15,1.15,5.68,3.54,3.54h0Z"/>
    <path class="cls-2" d="m62.71,56.26c5.55-6.07,12.09-11.1,19.42-14.85,4.06-2.07,8.32-3.69,12.55-5.36,4.5-1.77,8.99-3.55,13.49-5.32,1.26-.49,2.13-1.67,1.75-3.08-.33-1.2-1.81-2.24-3.08-1.75-4.57,1.8-9.15,3.61-13.72,5.41s-9.15,3.54-13.52,5.77c-7.67,3.92-14.62,9.28-20.43,15.63-2.17,2.37,1.36,5.92,3.54,3.54h0Z"/>
    <path class="cls-2" d="m56.03,61.98c2.36-2.95,5.34-5.19,8.49-7.23,3.49-2.25,7.07-4.39,10.65-6.5,7.33-4.32,14.79-8.43,22.37-12.31,4.35-2.23,8.74-4.38,13.16-6.46,1.22-.57,1.54-2.33.9-3.42-.73-1.25-2.19-1.47-3.42-.9-15.62,7.35-30.88,15.57-45.46,24.81-3.74,2.37-7.43,4.98-10.22,8.47-.84,1.05-1.03,2.51,0,3.54.87.87,2.69,1.06,3.54,0h0Z"/>
    <path class="cls-2" d="m40.5,78.14c9.44-11.6,21.21-21.06,34.57-27.76,2.88-1.44.35-5.76-2.52-4.32-13.69,6.87-25.91,16.66-35.58,28.54-.85,1.05-1.02,2.51,0,3.54.88.88,2.68,1.05,3.54,0h0Z"/>
    <path class="cls-2" d="m41.08,76.55c3.8-7.61,10.57-13.16,17.24-18.19,7.36-5.55,15.16-10.48,23.31-14.77,2.85-1.5.32-5.82-2.52-4.32-8.42,4.43-16.47,9.55-24.04,15.32-7.09,5.4-14.25,11.31-18.31,19.44-1.43,2.87,2.88,5.41,4.32,2.52h0Z"/>
    <path class="cls-2" d="m42.5,73.96c-.23-1.55,1.78-3.21,2.75-4.12,1.76-1.64,3.59-3.21,5.44-4.74,3.55-2.93,7.25-5.66,11.03-8.27,7.81-5.4,15.97-10.28,24.13-15.14,2.76-1.65.25-5.97-2.52-4.32-13.74,8.2-27.56,16.5-39.6,27.13-3.28,2.89-6.76,6.01-6.05,10.79.2,1.34,1.89,2.07,3.08,1.75,1.43-.39,1.95-1.73,1.75-3.08h0Z"/>
    <path class="cls-2" d="m42.14,76.72c1.32-3.99,3.99-7.29,6.96-10.19,3.26-3.18,6.86-6.06,10.48-8.82,7.69-5.87,15.85-11.11,24.38-15.68,2.84-1.52.31-5.84-2.52-4.32-6.93,3.72-13.62,7.87-20.01,12.45-6.18,4.43-12.58,9.12-17.72,14.75-2.8,3.07-5.09,6.52-6.4,10.49-1.01,3.06,3.82,4.38,4.82,1.33h0Z"/>
    <path class="cls-2" d="m36.25,79.57c2.78-7.32,9.03-12.7,14.96-17.49,7.18-5.79,14.6-11.28,22.2-16.5,4.33-2.97,8.72-5.84,13.17-8.63,2.72-1.7.21-6.03-2.52-4.32-8.17,5.11-16.14,10.54-23.89,16.27-3.95,2.92-7.85,5.92-11.68,8.99-3.23,2.58-6.42,5.24-9.26,8.26-3.33,3.55-6.06,7.53-7.8,12.09-.48,1.26.53,2.74,1.75,3.08,1.41.39,2.59-.48,3.08-1.75h0Z"/>
    <path class="cls-2" d="m37.8,78.7c1.83-3.86,4.87-6.8,8.06-9.56,3.47-3,7.07-5.85,10.77-8.56,7.59-5.57,15.55-10.61,23.62-15.46,4.6-2.76,9.23-5.46,13.87-8.15,2.78-1.62.27-5.94-2.52-4.32-16.71,9.72-33.49,19.53-48.27,32.08-3.85,3.27-7.66,6.81-9.86,11.44-.58,1.22-.34,2.7.9,3.42,1.09.64,2.84.33,3.42-.9h0Z"/>
    <path class="cls-2" d="m53.23,61.88c12.85-11.72,27.78-21.2,43.9-27.76,1.25-.51,2.13-1.66,1.75-3.08-.33-1.18-1.82-2.26-3.08-1.75-16.96,6.91-32.57,16.71-46.1,29.05-2.38,2.17,1.16,5.7,3.54,3.54h0Z"/>
    <path class="cls-2" d="m66.89,50.85c4.82-5.79,11.24-9.7,17.89-13.06,7.63-3.85,15.46-7.33,23.2-10.96,1.22-.57,1.53-2.33.9-3.42-.73-1.25-2.19-1.47-3.42-.9-7.86,3.69-15.83,7.21-23.57,11.15-6.86,3.49-13.56,7.69-18.54,13.66-.86,1.04-1.02,2.52,0,3.54.89.89,2.67,1.04,3.54,0h0Z"/>
    <path class="cls-2" d="m75.74,44.75c11.68-10.98,26.82-17.09,41.48-22.95,1.25-.5,2.13-1.67,1.75-3.08-.33-1.19-1.81-2.25-3.08-1.75-15.5,6.2-31.35,12.64-43.69,24.24-2.35,2.21,1.19,5.74,3.54,3.54h0Z"/>
    <path class="cls-2" d="m82.88,40.66c12.61-7.54,25.56-14.49,38.82-20.81,1.22-.58,1.54-2.33.9-3.42-.73-1.25-2.2-1.48-3.42-.9-13.26,6.32-26.22,13.27-38.82,20.81-2.76,1.65-.25,5.98,2.52,4.32h0Z"/>
    <path class="cls-2" d="m98.09,32.45c7.97-6.72,17.25-11.83,27.16-15.02,3.05-.98,1.75-5.81-1.33-4.82-10.78,3.47-20.72,9.01-29.37,16.3-1.03.87-.9,2.64,0,3.54,1.02,1.02,2.5.87,3.54,0h0Z"/>
    <path class="cls-2" d="m110.73,26.07c5.15-3.53,10.76-6.6,16.48-8.92,1.25-.51,2.13-1.67,1.75-3.08-.33-1.19-1.82-2.26-3.08-1.75-6.22,2.52-12.14,5.63-17.68,9.42-1.11.76-1.61,2.2-.9,3.42.64,1.1,2.3,1.66,3.42.9h0Z"/>
    <path class="cls-2" d="m117.45,22.33l12.43-6.09c1.18-.58,1.59-2.34.9-3.42-.78-1.21-2.16-1.51-3.42-.9l-12.43,6.09c-1.18.58-1.59,2.34-.9,3.42.78,1.21,2.16,1.51,3.42.9h0Z"/>
    <path class="cls-2" d="m121.51,20.88l11.17-6.59c1.13-.66,1.63-2.28.9-3.42s-2.22-1.61-3.42-.9l-11.17,6.59c-1.13.66-1.63,2.28-.9,3.42s2.22,1.61,3.42.9h0Z"/>
    <path class="cls-2" d="m19.3,98.56c3.22,0,3.22-5,0-5s-3.22,5,0,5h0Z"/>
    <path class="cls-2" d="m11.18,88.96c1.2,2.74,2.65,5.37,4.33,7.84.37.54.84.97,1.49,1.15.6.16,1.4.09,1.93-.25,1.07-.69,1.69-2.27.9-3.42-1.69-2.47-3.14-5.09-4.33-7.84-.23-.54-.96-1-1.49-1.15-.6-.16-1.4-.09-1.93.25s-1,.86-1.15,1.49c-.16.7-.03,1.28.25,1.93h0Z"/>
    <path class="cls-2" d="m10.81,88.43c1.7,4.53,3.8,8.9,6.33,13.02.68,1.11,2.27,1.64,3.42.9s1.63-2.23.9-3.42c-1.19-1.94-2.29-3.92-3.29-5.96-.49-1-.96-2.01-1.41-3.04-.06-.14-.12-.28-.18-.42.1.24.1.23-.02-.04-.09-.21-.18-.43-.26-.64-.23-.57-.45-1.14-.67-1.72-.46-1.22-1.71-2.19-3.08-1.75-1.19.39-2.24,1.76-1.75,3.08h0Z"/>
    <path class="cls-2" d="m8.88,86.32c3.64,7.6,7.84,14.91,12.57,21.89.76,1.12,2.2,1.61,3.42.9,1.11-.65,1.66-2.3.9-3.42-4.73-6.97-8.93-14.29-12.57-21.89-.58-1.22-2.32-1.54-3.42-.9-1.24.73-1.48,2.2-.9,3.42h0Z"/>
    <path class="cls-2" d="m6.71,82.93c3.95,7.8,8.38,15.34,13.28,22.58.76,1.12,2.2,1.61,3.42.9,1.11-.65,1.66-2.3.9-3.42-4.9-7.24-9.33-14.78-13.28-22.58-.61-1.2-2.31-1.55-3.42-.9-1.22.72-1.51,2.21-.9,3.42h0Z"/>
    <path class="cls-2" d="m10.15,89.82c7.84,13.29,16.6,26.01,26.16,38.11.84,1.06,2.66.88,3.54,0,1.05-1.05.84-2.47,0-3.54-9.3-11.76-17.77-24.18-25.38-37.1-1.63-2.77-5.96-.26-4.32,2.52h0Z"/>
    <path class="cls-2" d="m13.33,97.55c9.73,15.8,20.36,31.01,31.81,45.61.83,1.06,2.66.87,3.54,0,1.05-1.05.84-2.47,0-3.54-11.18-14.26-21.53-29.17-31.03-44.6-1.68-2.74-6.01-.23-4.32,2.52h0Z"/>
    <path class="cls-2" d="m22.53,113.22c10.94,16.33,23.26,31.74,36.79,45.99,2.22,2.34,5.75-1.2,3.54-3.54-13.25-13.95-25.3-29-36.01-44.98-1.78-2.66-6.12-.16-4.32,2.52h0Z"/>
    <path class="cls-2" d="m29.59,122.04c7.98,13.06,17.42,25.24,28.09,36.21,3.03,3.12,6.16,6.13,9.38,9.04,2.38,2.16,5.93-1.37,3.54-3.54-11.09-10.04-21.09-21.28-29.67-33.53-2.45-3.5-4.79-7.07-7.02-10.72-1.68-2.74-6-.23-4.32,2.52h0Z"/>
    <path class="cls-2" d="m31.61,124.82c7.78,12.59,17.51,23.99,28.78,33.58,3.22,2.74,6.57,5.34,10.01,7.79,1.1.78,2.78.19,3.42-.9.73-1.26.21-2.63-.9-3.42-11.45-8.17-21.7-18.16-30.12-29.44-2.44-3.28-4.74-6.66-6.89-10.14-1.69-2.73-6.02-.22-4.32,2.52h0Z"/>
    <path class="cls-2" d="m28.37,117.12c8.71,13.17,18.94,25.33,30.49,36.1,3.26,3.04,6.63,5.97,10.09,8.79,1.05.85,2.51,1.02,3.54,0,.88-.88,1.05-2.68,0-3.54-11.96-9.74-22.84-20.87-32.18-33.15-2.66-3.49-5.19-7.07-7.61-10.73-1.77-2.67-6.1-.17-4.32,2.52h0Z"/>
    <path class="cls-2" d="m31.69,119.27c7.86,12.84,17.66,24.52,29.01,34.42,3.25,2.84,6.63,5.52,10.11,8.08,1.09.8,2.79.18,3.42-.9.74-1.27.19-2.62-.9-3.42-11.54-8.49-21.86-18.77-30.35-30.32-2.47-3.36-4.79-6.83-6.97-10.39-1.68-2.74-6-.23-4.32,2.52h0Z"/>
    <path class="cls-2" d="m19.39,106.63c9.63,13.16,19.48,26.16,29.54,39,.83,1.06,2.66.87,3.54,0,1.05-1.05.84-2.47,0-3.54-9.8-12.5-19.38-25.17-28.76-37.99-.8-1.09-2.17-1.63-3.42-.9-1.07.63-1.7,2.32-.9,3.42h0Z"/>
    <path class="cls-2" d="m9.39,87.79c6.94,13.07,14.39,25.86,22.33,38.34,1.72,2.71,6.05.2,4.32-2.52-7.94-12.48-15.39-25.27-22.33-38.34-1.51-2.84-5.83-.32-4.32,2.52h0Z"/>
    <path class="cls-2" d="m13.73,96.62l4.91,10.28c.56,1.18,2.35,1.59,3.42.9,1.22-.78,1.5-2.15.9-3.42l-4.91-10.28c-.56-1.18-2.35-1.59-3.42-.9-1.22.78-1.5,2.15-.9,3.42h0Z"/>
    <path class="cls-2" d="m10.28,91.12l4.09,7.59c.62,1.15,2.31,1.61,3.42.9,1.17-.75,1.56-2.19.9-3.42l-4.09-7.59c-.62-1.15-2.31-1.61-3.42-.9-1.17.75-1.56,2.19-.9,3.42h0Z"/>
    <path class="cls-2" d="m6.78,84.27l3.44,6.88c.27.54.93.99,1.49,1.15.6.16,1.4.09,1.93-.25,1.2-.77,1.52-2.17.9-3.42l-3.44-6.88c-.27-.54-.93-.99-1.49-1.15-.6-.16-1.4-.09-1.93.25-1.2.77-1.52,2.17-.9,3.42h0Z"/>
    <path class="cls-2" d="m4.67,81.55c1.85,2.74,3.69,5.49,5.54,8.23.73,1.08,2.24,1.66,3.42.9,1.08-.7,1.68-2.26.9-3.42-1.85-2.74-3.69-5.49-5.54-8.23-.73-1.08-2.24-1.66-3.42-.9-1.08.7-1.68,2.26-.9,3.42h0Z"/>
    <path class="cls-2" d="m4.76,80.81l2.75,6.19c.24.54.95,1,1.49,1.15.6.16,1.4.09,1.93-.25s1-.86,1.15-1.49l.09-.66c0-.45-.12-.87-.34-1.26l-2.75-6.19c-.24-.54-.95-1-1.49-1.15-.6-.16-1.4-.09-1.93.25s-1,.86-1.15,1.49l-.09.66c0,.45.12.87.34,1.26h0Z"/>
    <path class="cls-2" d="m1.41,75.26l8.96,16.5c.64,1.19,2.28,1.56,3.42.9,1.2-.7,1.54-2.23.9-3.42l-8.96-16.5c-.64-1.19-2.28-1.56-3.42-.9-1.2.7-1.54,2.23-.9,3.42h0Z"/>
    <path class="cls-2" d="m7.43,86.36c3.76,6.28,7.74,12.42,11.95,18.4.78,1.1,2.19,1.62,3.42.9,1.09-.64,1.68-2.31.9-3.42-4.21-5.98-8.2-12.12-11.95-18.4-.69-1.16-2.25-1.58-3.42-.9s-1.59,2.26-.9,3.42h0Z"/>
    <path class="cls-2" d="m13.01,97.32c4.73,8.19,10.16,15.94,16.19,23.23.86,1.04,2.64.89,3.54,0,1.03-1.03.86-2.49,0-3.54-5.75-6.96-10.89-14.4-15.41-22.22-1.61-2.78-5.93-.27-4.32,2.52h0Z"/>
    <path class="cls-2" d="m16.48,103.5c5.28,9.67,12.5,18.27,21.14,25.1,1.06.84,2.5,1.03,3.54,0,.87-.87,1.07-2.69,0-3.54-8.35-6.59-15.27-14.75-20.36-24.09-1.54-2.83-5.86-.3-4.32,2.52h0Z"/>
    <path class="cls-2" d="m32.3,77.61c-1.52,3.38-3.41,6.57-5.65,9.53-.36.48-.4,1.37-.25,1.93.16.58.61,1.21,1.15,1.49.58.31,1.28.46,1.93.25s1.08-.6,1.49-1.15c2.24-2.95,4.13-6.15,5.65-9.53.28-.63.44-1.23.25-1.93-.16-.58-.61-1.21-1.15-1.49-1.09-.58-2.85-.38-3.42.9h0Z"/>
    <path class="cls-2" d="m35.49,70.98c-4.35,4.12-7.65,9.15-9.87,14.7-.49,1.22.53,2.8,1.75,3.08,1.44.33,2.55-.44,3.08-1.75.06-.14.11-.28.17-.43.28-.68-.12.24.06-.14.13-.28.25-.56.38-.84.29-.63.6-1.24.92-1.85.63-1.18,1.33-2.33,2.08-3.44.37-.54.75-1.06,1.14-1.59.23-.32-.22.27.03-.04.12-.15.24-.3.36-.45.19-.24.39-.47.59-.71.9-1.05,1.85-2.05,2.85-3s.98-2.64,0-3.54-2.52-.96-3.54,0h0Z"/>
    <path class="cls-2" d="m36.4,68.66c-4.11,5.44-7.85,11.15-11.18,17.1-.66,1.18-.28,2.73.9,3.42s2.76.29,3.42-.9c3.33-5.95,7.06-11.66,11.18-17.1.81-1.08.17-2.8-.9-3.42-1.28-.75-2.6-.18-3.42.9h0Z"/>
    <path class="cls-2" d="m33.44,74.03l-6.71,11.11c-.68,1.12-.29,2.8.9,3.42s2.7.3,3.42-.9l6.71-11.11c.68-1.12.29-2.8-.9-3.42s-2.7-.3-3.42.9h0Z"/>
    <path class="cls-2" d="m128.66,32.6c1.13,1.62,2.26,3.23,3.39,4.85.38.54.84.97,1.49,1.15.6.16,1.4.09,1.93-.25s1-.86,1.15-1.49.13-1.38-.25-1.93l-3.39-4.85c-.38-.54-.84-.97-1.49-1.15-.6-.16-1.4-.09-1.93.25s-1,.86-1.15,1.49-.13,1.38.25,1.93h0Z"/>
    <path class="cls-2" d="m128.07,31.27c3.52,4.29,7.04,8.58,10.55,12.88.83,1.02,2.68.93,3.54,0,.99-1.08.89-2.45,0-3.54-3.52-4.29-7.04-8.58-10.55-12.88-.83-1.02-2.68-.93-3.54,0-.99,1.08-.89,2.45,0,3.54h0Z"/>
    <path class="cls-2" d="m127.01,27.28c4.48,7.26,8.96,14.52,13.45,21.78,1.69,2.73,6.01.22,4.32-2.52-4.48-7.26-8.96-14.52-13.45-21.78-1.69-2.73-6.01-.22-4.32,2.52h0Z"/>
    <path class="cls-2" d="m128.31,30.39c6.88,8.48,13.77,16.96,20.65,25.44.85,1.05,2.65.89,3.54,0,1.04-1.04.85-2.48,0-3.54-6.88-8.48-13.77-16.96-20.65-25.44-.85-1.05-2.65-.89-3.54,0-1.04,1.04-.85,2.48,0,3.54h0Z"/>
    <path class="cls-2" d="m130.25,31.87c8.48,10.23,16.19,21.08,23.1,32.43,1.67,2.74,6,.23,4.32-2.52-7.14-11.71-15.13-22.88-23.88-33.44-.86-1.04-2.64-.89-3.54,0-1.03,1.03-.86,2.49,0,3.54h0Z"/>
    <path class="cls-2" d="m132.26,34.67c11.82,13.43,22.32,27.97,31.38,43.4,1.63,2.77,5.95.26,4.32-2.52-9.27-15.79-20.06-30.67-32.16-44.42-.89-1.01-2.62-.91-3.54,0-1.01,1.01-.89,2.52,0,3.54h0Z"/>
    <path class="cls-2" d="m137.22,41.43c10.26,12.63,19.52,26.07,27.71,40.14,1.62,2.78,5.94.26,4.32-2.52-8.41-14.44-17.96-28.18-28.49-41.15-.85-1.05-2.65-.89-3.54,0-1.04,1.04-.85,2.48,0,3.54h0Z"/>
    <path class="cls-2" d="m136.07,45.71c4.54,6.72,10.25,12.49,15.54,18.61,4.98,5.76,9.58,12.03,11.52,19.51.81,3.11,5.63,1.79,4.82-1.33-3.25-12.53-12.9-21.63-21.11-31.08-2.29-2.64-4.49-5.34-6.45-8.24-1.79-2.65-6.13-.15-4.32,2.52h0Z"/>
    <path class="cls-2" d="m135.25,43.81c9.62,11.48,19.28,23.05,26.73,36.1,2.14,3.75,4.07,7.61,5.77,11.58.53,1.24,2.36,1.52,3.42.9,1.28-.75,1.43-2.17.9-3.42-6.07-14.21-15.27-26.74-24.97-38.67-2.74-3.37-5.52-6.7-8.31-10.03-.87-1.04-2.64-.9-3.54,0-1.03,1.03-.87,2.5,0,3.54h0Z"/>
    <path class="cls-2" d="m140.84,53.61c12.67,11.31,22.87,25.38,29.48,41.04.52,1.24,1.65,2.14,3.08,1.75,1.17-.32,2.27-1.82,1.75-3.08-6.94-16.48-17.4-31.33-30.76-43.25-2.39-2.14-5.94,1.39-3.54,3.54h0Z"/>
    <path class="cls-2" d="m153.06,65.48c6.75,7.94,11.82,17.24,14.89,27.19.95,3.07,5.77,1.76,4.82-1.33-3.34-10.81-8.85-20.79-16.18-29.4-.88-1.03-2.63-.9-3.54,0-1.02,1.02-.88,2.5,0,3.54h0Z"/>
    <path class="cls-2" d="m155.99,67.13c6.72,9.61,12.7,19.72,17.9,30.24,1.43,2.88,5.74.35,4.32-2.52-5.2-10.51-11.18-20.62-17.9-30.24-.77-1.11-2.19-1.62-3.42-.9-1.09.64-1.67,2.31-.9,3.42h0Z"/>
    <path class="cls-2" d="m159.35,71.99c5.87,8.93,11.1,18.26,15.63,27.93.57,1.22,2.33,1.53,3.42.9,1.25-.73,1.47-2.19.9-3.42-4.54-9.67-9.76-19.01-15.63-27.93-1.76-2.68-6.09-.17-4.32,2.52h0Z"/>
    <path class="cls-2" d="m165.6,82.26c4.76,7.8,9.15,15.81,13.16,24.01.59,1.21,2.32,1.54,3.42.9,1.24-.72,1.49-2.2.9-3.42-4.01-8.21-8.4-16.22-13.16-24.01-1.67-2.74-6-.23-4.32,2.52h0Z"/>
    <path class="cls-2" d="m168.26,88.53c5.13,7.33,9.69,15.04,13.64,23.06.6,1.21,2.31,1.54,3.42.9,1.24-.72,1.5-2.2.9-3.42-3.95-8.03-8.51-15.73-13.64-23.06-.77-1.1-2.19-1.62-3.42-.9-1.09.64-1.68,2.31-.9,3.42h0Z"/>
    <path class="cls-2" d="m174.36,97.79c3.36,5.78,6.72,11.56,10.07,17.34,1.62,2.78,5.94.27,4.32-2.52-3.36-5.78-6.72-11.56-10.07-17.34-1.62-2.78-5.94-.27-4.32,2.52h0Z"/>
    <path class="cls-2" d="m177.44,102.81c3.55,4.69,6.59,9.74,9.08,15.07.55,1.19,2.36,1.58,3.42.9,1.22-.79,1.49-2.15.9-3.42-2.49-5.33-5.53-10.38-9.08-15.07-.79-1.04-2.19-1.69-3.42-.9-1.03.66-1.74,2.31-.9,3.42h0Z"/>
    <path class="cls-2" d="m181.75,107.53c2.49,4.6,4.99,9.2,7.48,13.8.62,1.15,2.31,1.61,3.42.9,1.17-.75,1.56-2.19.9-3.42-2.49-4.6-4.99-9.2-7.48-13.8-.62-1.15-2.31-1.61-3.42-.9-1.17.75-1.56,2.19-.9,3.42h0Z"/>
    <path class="cls-2" d="m185.03,114.49c1.65,2.49,3.31,4.98,4.96,7.47.36.54.85.97,1.49,1.15.6.16,1.4.09,1.93-.25,1.08-.7,1.67-2.26.9-3.42l-4.96-7.47c-.36-.54-.85-.97-1.49-1.15-.6-.16-1.4-.09-1.93.25-1.08.7-1.67,2.26-.9,3.42h0Z"/>
    <path class="cls-2" d="m187.82,118.6l4.05,7.61c.62,1.16,2.32,1.61,3.42.9,1.17-.76,1.56-2.18.9-3.42l-4.05-7.61c-.62-1.16-2.32-1.61-3.42-.9-1.17.76-1.56,2.18-.9,3.42h0Z"/>
    <path class="cls-2" d="m189.18,121.37l1.36,2.76c.16.29.37.53.64.7.24.22.52.37.85.45.33.1.66.12,1,.04.33-.02.64-.11.93-.3.53-.34,1-.86,1.15-1.49l.09-.66c0-.45-.12-.87-.34-1.26l-1.36-2.76c-.16-.29-.37-.53-.64-.7-.24-.22-.52-.37-.85-.45-.33-.1-.66-.12-1-.04-.33.02-.64.11-.93.3-.53.34-1,.86-1.15,1.49l-.09.66c0,.45.12.87.34,1.26h0Z"/>
    <path class="cls-2" d="m113.45,107.1c2.26-.66,4.53-.96,6.89-.88.99.03,1.97.13,2.95.32.46.09.92.19,1.38.32.48.14.83.26,1.11.39.79.37,1.2.62,1.71,1.17.55.6-.11-.17.15.21.06.08.26.56.13.2.05.15.11.34.13.5-.06-.46-.07.36-.02.14-.45,1.83-2.27,3.33-3.62,4.6-3.04,2.87-6.55,5.2-10.34,6.96-.36.17-.72.33-1.08.48s-1.06.26-1.36.48c.6-.43,1.9,1.49,1.33,1.77-.14.07.46-.53.37-.44.26-.27.55-.52.82-.78,1.73-1.65,3.49-3.27,5.28-4.86,4.07-3.63,8.28-7.1,12.62-10.4l-3.03-3.93c-4.71,5.46-10.43,9.84-16.92,12.98l3.03,3.93c2.1-1.75,4.2-3.5,6.3-5.24,1.02-.85,2.05-1.71,3.07-2.56.51-.43,1.02-.85,1.54-1.28.38-.32.65-.66,1.11-.73h-1.33c-.19-.17-.39-.34-.6-.5l-.34-1.26.05-.24c-.9,3.1,3.92,4.42,4.82,1.33.7-2.42-1.55-4.61-3.93-4.15-1.93.37-3.54,2.19-5.01,3.42-3.07,2.56-6.14,5.12-9.21,7.67-.95.79-.91,2.39-.2,3.28.81,1.02,2.07,1.2,3.23.64,6.83-3.3,12.97-8.02,17.93-13.76.81-.94,1.01-2.27.2-3.28-.7-.88-2.22-1.41-3.23-.64-4.88,3.71-9.63,7.59-14.19,11.68-1.12,1.01-2.24,2.03-3.34,3.06s-2.36,2.01-3.18,3.27-1.09,2.95-.24,4.32c.99,1.6,2.95,1.91,4.64,1.45,2.55-.7,5.1-2.16,7.34-3.52s4.41-2.97,6.4-4.73,4.23-3.77,5.34-6.2c1.24-2.71.72-5.77-1.52-7.79s-5.44-2.83-8.49-3.17c-3.35-.37-6.79-.02-10.03.93s-1.77,5.73,1.33,4.82h0Z"/>
    <path class="cls-2" d="m173.39,124.01c3.22,0,3.22-5,0-5s-3.22,5,0,5h0Z"/>
    <path class="cls-2" d="m175.22,116.44c-2.59,3.14-5.41,6.07-8.45,8.77-.98.87-.96,2.66,0,3.54,1.05.96,2.49.93,3.54,0,3.04-2.71,5.86-5.64,8.45-8.77.43-.52.73-1.06.73-1.77,0-.61-.27-1.35-.73-1.77-.92-.84-2.65-1.08-3.54,0h0Z"/>
    <path class="cls-2" d="m176.47,115.65c-3.93,4.33-7.86,8.65-11.79,12.98-.88.97-1.03,2.59,0,3.54.96.88,2.6,1.03,3.54,0,3.93-4.33,7.86-8.65,11.79-12.98.88-.97,1.03-2.59,0-3.54-.96-.88-2.6-1.03-3.54,0h0Z"/>
    <path class="cls-2" d="m176.95,116.96c-1.82,2.64-3.5,4.75-5.81,7.23s-4.57,4.55-7.08,6.57c-1.02.82-.92,2.69,0,3.54,1.09,1,2.44.88,3.54,0,5.27-4.24,9.84-9.25,13.67-14.81.74-1.08.24-2.82-.9-3.42-1.27-.67-2.63-.26-3.42.9h0Z"/>
    <path class="cls-2" d="m177.13,117.68c-5.73,6.63-11.98,12.79-18.7,18.42-1.04.87-.9,2.64,0,3.54,1.03,1.03,2.5.87,3.54,0,6.72-5.63,12.98-11.79,18.7-18.42.88-1.02,1-2.53,0-3.54-.9-.9-2.65-1.03-3.54,0h0Z"/>
    <path class="cls-2" d="m175.96,119.91c-5.28,6.81-11.18,13.13-17.61,18.87-1.01.9-.92,2.62,0,3.54,1,1,2.52.9,3.54,0,6.44-5.74,12.33-12.05,17.61-18.87.83-1.07,1.04-2.5,0-3.54-.86-.86-2.7-1.07-3.54,0h0Z"/>
    <path class="cls-2" d="m173.81,123.31c-5.82,5.64-11.64,11.28-17.46,16.92-.97.94-.94,2.59,0,3.54s2.56.94,3.54,0c5.82-5.64,11.64-11.28,17.46-16.92.97-.94.94-2.59,0-3.54s-2.56-.94-3.54,0h0Z"/>
    <path class="cls-2" d="m170.34,128.08c-6.17,7-13.48,12.82-21.7,17.23-2.84,1.52-.31,5.84,2.52,4.32,8.56-4.59,16.29-10.72,22.71-18.01.89-1.01,1-2.54,0-3.54-.91-.91-2.64-1.02-3.54,0h0Z"/>
    <path class="cls-2" d="m166.64,131.95c-7.34,6.89-15.25,13.12-23.67,18.64-2.68,1.76-.18,6.09,2.52,4.32,8.77-5.75,17.04-12.25,24.68-19.42,2.35-2.21-1.19-5.74-3.54-3.54h0Z"/>
    <path class="cls-2" d="m160.75,135.69c-6.77,7.1-14.54,13.11-23.11,17.88-2.81,1.56-.29,5.88,2.52,4.32,8.92-4.96,17.08-11.27,24.13-18.66,2.22-2.33-1.31-5.87-3.54-3.54h0Z"/>
    <path class="cls-2" d="m160.73,134.3c-4.84,5.75-10.43,10.84-16.68,15.03-1.52,1.02-3.07,1.98-4.65,2.9s-3.71,1.62-4.95,2.97c-1.64,1.8-.74,4.97,1.89,5.02s3.88-2.8,2.18-4.7c-2.15-2.4-5.68,1.14-3.54,3.54l.11.12-.64-2.43-.03.12.64-1.1-.12.11,1.1-.64.8.02,1.49,1.15-.09-.16.34,1.26v-.28c-.11.42-.22.84-.33,1.26-.35.25-.41.3-.17.16.11-.06.21-.12.32-.17.31-.17.62-.32.93-.49.62-.33,1.24-.67,1.85-1.01,1.22-.69,2.43-1.41,3.61-2.16,2.49-1.58,4.89-3.31,7.21-5.13,4.48-3.51,8.57-7.49,12.24-11.84.87-1.03,1.01-2.52,0-3.54-.89-.89-2.66-1.04-3.54,0h0Z"/>
    <path class="cls-2" d="m159.28,133.54c-9.2,9.73-19.75,18.04-31.36,24.71-2.79,1.6-.27,5.92,2.52,4.32,11.96-6.86,22.9-15.47,32.37-25.49,2.21-2.34-1.32-5.88-3.54-3.54h0Z"/>
    <path class="cls-2" d="m154.44,137.64c-7.83,9.35-17.84,16.83-29.14,21.46-1.25.51-2.13,1.66-1.75,3.08.32,1.18,1.82,2.26,3.08,1.75,12.11-4.95,22.94-12.7,31.35-22.74.87-1.03,1.01-2.52,0-3.54-.89-.89-2.66-1.04-3.54,0h0Z"/>
    <path class="cls-2" d="m144.7,146.46c-7.41,6.53-15.39,12.34-23.87,17.41-2.76,1.65-.25,5.98,2.52,4.32,8.83-5.29,17.16-11.39,24.88-18.19,1.01-.89.91-2.62,0-3.54-1.01-1.01-2.52-.9-3.54,0h0Z"/>
    <path class="cls-2" d="m146.2,145.92c-9.76,9.64-21.69,16.96-34.74,21.22-3.04,1-1.74,5.83,1.33,4.82,13.87-4.54,26.56-12.25,36.94-22.51,2.29-2.27-1.24-5.8-3.54-3.54h0Z"/>
    <path class="cls-2" d="m142.9,149.57c-10.29,5.84-20.58,11.67-30.87,17.51-2.24,1.27-1.14,4.54,1.26,4.66,3.1.15,6.16-1.62,7.52-4.42.59-1.21.33-2.7-.9-3.42-1.1-.64-2.83-.32-3.42.9-.64,1.33-1.72,2.01-3.21,1.94l1.26,4.66c10.29-5.84,20.58-11.67,30.87-17.51,2.8-1.59.28-5.91-2.52-4.32h0Z"/>
    <path class="cls-2" d="m145.35,146.23c-13.27,11.81-29.7,19.21-45.73,26.45-1.23.56-1.53,2.34-.9,3.42.74,1.27,2.19,1.45,3.42.9,16.47-7.44,33.12-15.1,46.74-27.23,2.41-2.14-1.14-5.67-3.54-3.54h0Z"/>
    <path class="cls-2" d="m135.81,153.28c-12,7.44-23.91,15.03-35.73,22.75-2.68,1.75-.18,6.08,2.52,4.32,11.82-7.72,23.73-15.31,35.73-22.75,2.73-1.69.22-6.02-2.52-4.32h0Z"/>
    <path class="cls-2" d="m129.53,157.28c-11.52,6.79-23.03,13.58-34.55,20.38-2.77,1.63-.26,5.96,2.52,4.32,11.52-6.79,23.03-13.58,34.55-20.38,2.77-1.63.26-5.96-2.52-4.32h0Z"/>
    <path class="cls-2" d="m114.47,166.45c-7.41,5.91-15.94,10.37-24.99,13.17-3.06.95-1.76,5.78,1.33,4.82,9.92-3.07,19.08-7.99,27.19-14.45,1.06-.84.88-2.66,0-3.54-1.04-1.04-2.48-.84-3.54,0h0Z"/>
    <path class="cls-2" d="m109.11,168.54c-7.82,5.93-16.56,10.54-25.9,13.57-3.05.99-1.74,5.82,1.33,4.82,9.74-3.16,18.93-7.89,27.09-14.07,1.07-.81,1.64-2.16.9-3.42-.62-1.06-2.34-1.72-3.42-.9h0Z"/>
    <path class="cls-2" d="m102.38,171.63c-7.07,5.47-15.03,9.85-23.41,12.94-1.27.47-2.13,1.69-1.75,3.08.34,1.22,1.8,2.22,3.08,1.75,9.26-3.41,17.82-8.19,25.62-14.22,1.07-.83.87-2.67,0-3.54-1.05-1.05-2.46-.83-3.54,0h0Z"/>
    <path class="cls-2" d="m104.07,171.01c-7.88,5.89-16.49,10.86-25.6,14.59l2.43,4.18c.45-.4.91-.8,1.36-1.2,1.02-.89.91-2.62,0-3.54-1.01-1.01-2.52-.89-3.54,0-.45.4-.91.8-1.36,1.2-1.8,1.58.11,5.13,2.43,4.18,9.54-3.9,18.54-8.92,26.8-15.09,1.08-.81,1.63-2.16.9-3.42-.62-1.06-2.33-1.71-3.42-.9h0Z"/>
    <path class="cls-2" d="m102.39,172.3c-6.89,6.15-15.12,10.67-23.99,13.23-3.09.89-1.77,5.72,1.33,4.82,9.71-2.81,18.66-7.79,26.2-14.52,2.41-2.15-1.14-5.67-3.54-3.54h0Z"/>
    <path class="cls-2" d="m97.23,175.21c-8.07,4.75-16.13,9.49-24.2,14.24-2.77,1.63-.26,5.95,2.52,4.32,8.07-4.75,16.13-9.49,24.2-14.24,2.77-1.63.26-5.95-2.52-4.32h0Z"/>
    <path class="cls-2" d="m93.07,177.22c-7.16,4.45-14.53,8.53-22.1,12.23-1.21.59-1.54,2.32-.9,3.42.72,1.24,2.2,1.49,3.42.9,7.57-3.7,14.94-7.78,22.1-12.23,2.73-1.69.22-6.02-2.52-4.32h0Z"/>
    <path class="cls-2" d="m98.65,175.99c-6.25,3.68-12.74,6.97-19.45,9.73-1.64.67-3.29,1.31-4.95,1.94s-3.37,1.6-3.35,3.69c.03,2.2,2.5,3.34,4.33,2.33,1.99-1.1,1.77-3.48.11-4.72-1.09-.81-2.79-.18-3.42.9-.74,1.27-.19,2.61.9,3.42l.13.09-1.24-2.16v.11c.25-.59.49-1.18.74-1.77l1.18-.48,1.26.34-.14-.07.9.9-.08-.16.34,1.26v-.26c-.1.42-.22.84-.33,1.26-.1.21-.25.31-.43.29.29-.11.58-.21.87-.32.58-.22,1.15-.44,1.73-.66,1.15-.45,2.29-.91,3.43-1.38,2.33-.97,4.65-1.98,6.94-3.06,4.46-2.1,8.82-4.41,13.07-6.91,2.77-1.63.26-5.95-2.52-4.32h0Z"/>
    <path class="cls-2" d="m89.69,179.43c-6.21,3.17-12.42,6.34-18.64,9.51-1.2.61-1.55,2.3-.9,3.42.71,1.22,2.21,1.51,3.42.9,6.21-3.17,12.42-6.34,18.64-9.51,1.2-.61,1.55-2.3.9-3.42-.71-1.22-2.21-1.51-3.42-.9h0Z"/>
    <path class="cls-2" d="m135.25,148.69c-10.6,10.71-24.49,17.06-37.34,24.57-3.71,2.17-7.35,4.45-10.85,6.95-1.1.78-1.62,2.18-.9,3.42.63,1.08,2.32,1.69,3.42.9,12.44-8.9,26.72-14.82,39.12-23.78,3.57-2.58,6.98-5.39,10.08-8.52,2.27-2.29-1.27-5.83-3.54-3.54h0Z"/>
    <path class="cls-2" d="m136.4,148.99c-4.58,2.99-9.16,5.97-13.75,8.96-1.09.71-1.65,2.25-.9,3.42.7,1.09,2.25,1.66,3.42.9,4.58-2.99,9.16-5.97,13.75-8.96,1.09-.71,1.65-2.25.9-3.42-.7-1.09-2.25-1.66-3.42-.9h0Z"/>
    <circle class="cls-3" cx="99.98" cy="100.38" r="20.88"/>
    <circle class="cls-1" cx="99.68" cy="100.19" r="9.04"/>
    <path class="cls-2" d="m133.38,149.12l3.44-2.06c.54-.33.98-.88,1.15-1.49.1-.33.12-.66.04-1-.02-.33-.11-.64-.3-.93-.34-.53-.86-1-1.49-1.15s-1.34-.1-1.93.25l-3.44,2.06c-.54.33-.98.88-1.15,1.49-.1.33-.12.66-.04,1,.02.33.11.64.3.93.34.53.86,1,1.49,1.15s1.34.1,1.93-.25h0Z"/>
    <path class="cls-2" d="m134.23,147.76c4.13-.68,7.76-3.18,10.16-6.56.36-.5.41-1.36.25-1.93s-.61-1.21-1.15-1.49c-1.29-.68-2.61-.24-3.42.9-.06.09-.13.18-.2.27-.17.24.41-.51.1-.13-.13.16-.26.31-.39.46-.27.3-.55.59-.84.87-.16.15-.33.3-.5.45-.07.06-.14.12-.21.17-.31.25.01,0,.14-.1-.31.28-.7.5-1.05.72s-.7.41-1.06.59c-.18.09-.36.17-.55.26-.44.2.44-.17.16-.07-.11.04-.21.08-.31.12-.8.3-1.63.51-2.47.65-.58.1-1.21.66-1.49,1.15-.31.54-.45,1.33-.25,1.93s.57,1.19,1.15,1.49c.63.33,1.23.37,1.93.25h0Z"/>
    <path class="cls-2" d="m135.59,148.87c4.41-1.57,8.16-4.5,10.71-8.43.71-1.1.26-2.81-.9-3.42-1.24-.66-2.66-.28-3.42.9-.26.4-.57.78-.83,1.18.1-.16.33-.41.08-.11-.08.09-.15.19-.23.28-.15.18-.31.36-.48.54-.65.71-1.36,1.36-2.1,1.97-.26.21.09-.07.16-.13-.12.08-.23.17-.35.26-.19.14-.39.28-.59.41-.38.25-.77.49-1.17.71-.42.24-.85.45-1.28.66-.11.05-.22.1-.33.15-.4.18.42-.17.13-.06-.25.09-.49.19-.74.28-1.23.44-2.18,1.72-1.75,3.08.39,1.21,1.76,2.22,3.08,1.75h0Z"/>
    <path class="cls-2" d="m137.67,149.62c4.44-1.45,8.31-4.73,10.23-9.02.28-.63.44-1.23.25-1.93-.16-.58-.61-1.21-1.15-1.49-1.09-.58-2.85-.38-3.42.9-.4.88-.87,1.72-1.44,2.51-.08.11-.16.21-.23.32.45-.62.17-.22.06-.09-.14.17-.28.34-.43.5-.34.38-.69.73-1.07,1.07-.18.16-.36.32-.55.47-.08.06-.4.32-.06.05s-.04.03-.11.08c-.39.28-.79.55-1.21.79s-.84.47-1.28.67c-.1.05-.2.08-.3.13.68-.34.28-.12.11-.05-.25.1-.49.18-.74.26-1.24.41-2.18,1.75-1.75,3.08.4,1.24,1.74,2.18,3.08,1.75h0Z"/>
    <path class="cls-2" d="m139.56,148.42c4.19-1.86,7.73-4.85,10.49-8.49.37-.48.4-1.37.25-1.93-.16-.58-.61-1.21-1.15-1.49-.58-.31-1.28-.46-1.93-.25s-1.08.6-1.49,1.15c-.27.36.25-.31.06-.07-.08.1-.16.2-.25.3-.15.18-.3.36-.45.54-.32.37-.66.74-1.01,1.09-.72.73-1.48,1.39-2.27,2.04-.25.21.4-.3.13-.1-.1.08-.21.16-.31.23-.21.15-.42.31-.64.45-.41.28-.83.55-1.25.8-.87.52-1.78.99-2.71,1.4-.54.24-1,.95-1.15,1.49-.16.6-.09,1.4.25,1.93s.86,1,1.49,1.15c.7.16,1.28.04,1.93-.25h0Z"/>
    <path class="cls-2" d="m133.68,147.7c.1,1.65.82,2.83,2.13,3.81.68.51,1.83.42,2.52,0,4.59-2.81,8.5-6.56,11.56-10.98.75-1.08.23-2.82-.9-3.42-1.27-.67-2.62-.25-3.42.9-.33.47-.64.99-1.03,1.42.37-.41.05-.07-.03.03-.1.13-.2.25-.31.38-.18.23-.37.45-.56.67-.78.91-1.61,1.78-2.48,2.6-.42.4-.86.79-1.3,1.17-.22.19-.45.38-.67.56-.13.1-.25.2-.38.3-.22.18-.1.1.05-.03-.9.81-2.02,1.46-3.05,2.09h2.52c.27.22.31.23.11.04.19.25.24.3.14.14-.09-.17-.06-.1.08.19-.06-.28-.06-.23,0,.14-.08-1.3-1.09-2.56-2.5-2.5-1.28.06-2.59,1.1-2.5,2.5h0Z"/>
    <path class="cls-2" d="m137.6,150.02c6.63-2.92,12.28-7.71,16.46-13.61.76-1.07.23-2.83-.9-3.42-1.29-.68-2.61-.25-3.42.9-.24.34-.49.68-.74,1.01s0,0-.15.19c-.13.16-.26.33-.39.49-.53.65-1.08,1.28-1.66,1.88-1.12,1.19-2.32,2.3-3.58,3.34-.16.13-.33.26-.49.39-.09.07-.3.23-.09.07-.33.25-.67.5-1.01.74-.68.48-1.38.94-2.1,1.38-1.43.87-2.92,1.64-4.45,2.32-1.2.53-1.57,2.37-.9,3.42.8,1.24,2.14,1.46,3.42.9h0Z"/>
    <path class="cls-2" d="m143.82,145.91c5.12-2.89,9.5-6.84,13.05-11.52.79-1.05.2-2.84-.9-3.42-1.32-.7-2.57-.22-3.42.9-.4.52.2-.24-.04.06-.11.13-.21.27-.32.4-.21.26-.43.52-.65.78-.42.49-.84.97-1.28,1.44-.9.96-1.85,1.88-2.85,2.75-.48.42-.98.83-1.48,1.23-.09.07-.48.36-.06.05-.14.1-.27.2-.41.31-.24.18-.49.36-.74.54-1.11.78-2.25,1.5-3.43,2.17s-1.62,2.3-.9,3.42,2.2,1.59,3.42.9h0Z"/>
    <path class="cls-2" d="m145.26,145c3.1-.71,5.94-2.23,8.37-4.27s4.24-4.7,5.48-7.63c.51-1.21-.55-2.8-1.75-3.08-1.47-.33-2.53.45-3.08,1.75.26-.62.01-.05-.04.06-.06.13-.13.27-.19.4-.15.29-.3.58-.47.86-.33.57-.69,1.11-1.08,1.63-.36.49.35-.41-.05.06-.1.11-.19.23-.29.34-.21.25-.43.49-.66.73-.45.47-.93.92-1.43,1.34-.11.1-.23.19-.35.28-.24.2.39-.28.01-.01-.29.21-.58.42-.88.61-.55.36-1.11.68-1.7.98-.24.12-.54.32-.81.38.57-.11.12-.05-.06.02-.14.05-.28.11-.42.16-.64.23-1.3.42-1.97.57-1.28.29-2.15,1.83-1.75,3.08.43,1.34,1.71,2.06,3.08,1.75h0Z"/>
    <path class="cls-2" d="m144.5,146.57c4.95-2.87,9.17-6.76,12.53-11.38.77-1.06.21-2.83-.9-3.42-1.3-.69-2.59-.23-3.42.9-.19.26-.38.53-.58.78.21-.26.14-.18-.03.03-.1.13-.2.25-.31.38-.41.5-.83.99-1.27,1.48-.85.94-1.75,1.83-2.69,2.68-.46.41-.93.81-1.4,1.2-.13.1-.25.2-.38.31-.21.17-.29.24-.03.03-.25.2-.52.39-.78.58-1.05.76-2.14,1.47-3.27,2.12s-1.63,2.29-.9,3.42,2.21,1.6,3.42.9h0Z"/>
    <path class="cls-2" d="m145.86,145.82c3.75-2.85,7.02-6.12,9.85-9.89.36-.48.4-1.37.25-1.93s-.61-1.21-1.15-1.49c-.58-.31-1.28-.46-1.93-.25s-1.08.6-1.49,1.15c-.08.11-.16.21-.24.32-.19.25.33-.42.05-.07-.16.21-.33.42-.5.62-.32.39-.64.78-.97,1.16-.68.78-1.38,1.54-2.11,2.27s-1.45,1.41-2.2,2.07c-.4.35-.8.69-1.21,1.03-.18.15-.37.3-.56.45-.04.03-.31.19-.31.25l.25-.2c-.08.06-.17.13-.25.19-.54.41-.96.81-1.15,1.49-.16.6-.09,1.4.25,1.93s.86,1,1.49,1.15,1.4.14,1.93-.25h0Z"/>
    <path class="cls-2" d="m30.72,88.16c.47-.79.98-1.55,1.54-2.28l-.39.51c1.07-1.37,2.28-2.61,3.64-3.7.47-.38.73-1.2.73-1.77,0-.61-.27-1.35-.73-1.77s-1.1-.76-1.77-.73l-.66.09c-.42.12-.79.33-1.1.64-2.23,1.79-4.12,4.02-5.57,6.48-.33.56-.42,1.3-.25,1.93.16.58.61,1.21,1.15,1.49,1.2.64,2.71.3,3.42-.9h0Z"/>
    <path class="cls-2" d="m30.25,88.3c.9-1.74,1.92-3.42,3.06-5.01.13-.18.27-.37.4-.55.07-.09.14-.18.2-.27.21-.27.16-.16-.03.03.33-.35.6-.76.91-1.13.64-.76,1.31-1.5,2-2.21.91-.94,1-2.61,0-3.54s-2.56-1-3.54,0c-2.92,3-5.41,6.43-7.33,10.15-.6,1.16-.34,2.77.9,3.42,1.15.61,2.78.34,3.42-.9h0Z"/>
    <path class="cls-2" d="m28.09,88.38c.26-1.51.69-2.97,1.25-4.4-.19.48.09-.21.11-.24.06-.14.13-.28.19-.42.17-.34.34-.68.52-1.02.38-.7.81-1.39,1.26-2.05.11-.16.22-.31.33-.47.26-.37-.07.08.1-.13.24-.3.48-.59.73-.88.5-.57,1.04-1.12,1.6-1.64.28-.26.57-.51.86-.75.15-.12.29-.24.45-.36-.28.22,0,0,.13-.09.65-.47,1.33-.9,2.02-1.3,1.14-.65,1.62-2.29.9-3.42s-2.2-1.59-3.42-.9c-6.13,3.49-10.65,9.77-11.86,16.73-.22,1.28.34,2.76,1.75,3.08,1.21.28,2.84-.37,3.08-1.75h0Z"/>
    <path class="cls-2" d="m27.72,88.42c5.99-8.89,13.21-16.89,21.39-23.81,1.03-.87.9-2.64,0-3.54-1.02-1.02-2.5-.87-3.54,0-8.51,7.2-15.95,15.57-22.18,24.82-.75,1.12-.22,2.77.9,3.42,1.23.72,2.66.23,3.42-.9h0Z"/>
    <path class="cls-2" d="m26.28,87.69c3.64-6.16,8.76-11.24,14.96-14.85,1.13-.66,1.63-2.29.9-3.42s-2.21-1.6-3.42-.9c-6.89,4.01-12.7,9.78-16.76,16.64-.67,1.13-.29,2.79.9,3.42s2.71.31,3.42-.9h0Z"/>
    <path class="cls-2" d="m22.1,88.48c5.09-6.04,11.21-11.04,18.17-14.8,1.19-.64,1.56-2.28.9-3.42-.7-1.2-2.23-1.54-3.42-.9-7.29,3.93-13.84,9.24-19.18,15.58-.87,1.03-1.01,2.52,0,3.54.89.89,2.66,1.04,3.54,0h0Z"/>
    <path class="cls-2" d="m24.38,87.39c7.08-7.91,15.22-14.76,24.25-20.35,2.73-1.69.22-6.02-2.52-4.32-9.37,5.8-17.91,12.92-25.27,21.13-2.14,2.39,1.38,5.94,3.54,3.54h0Z"/>
    <path class="cls-2" d="m27.66,86.56c8.16-8.77,17.02-16.92,26.51-24.23,1.07-.82,1.64-2.15.9-3.42-.61-1.05-2.34-1.73-3.42-.9-9.84,7.58-19.06,15.91-27.52,25.01-2.19,2.35,1.34,5.9,3.54,3.54h0Z"/>
    <path class="cls-2" d="m30.98,85.12c8.95-11.36,19.87-21.09,32.23-28.59,3.55-2.15,7.21-4.11,10.95-5.89,1.22-.58,1.54-2.33.9-3.42-.73-1.25-2.2-1.48-3.42-.9-13.36,6.35-25.58,15.13-35.88,25.75-2.94,3.03-5.71,6.21-8.32,9.52-.83,1.06-1.03,2.5,0,3.54.87.87,2.7,1.07,3.54,0h0Z"/>
    <path class="cls-2" d="m142.05,140.38l-3.87,3.17,3.54,3.54c4.88-4.13,10.66-7.65,16.54-10.06,1.25-.51,2.13-1.66,1.75-3.08-.32-1.18-1.82-2.26-3.08-1.75-6.83,2.8-13.11,6.57-18.75,11.34-1.03.87-.9,2.64,0,3.54,1.03,1.03,2.49.86,3.54,0l3.87-3.17c1.05-.86.89-2.65,0-3.54-1.03-1.03-2.49-.86-3.54,0h0Z"/>
    <path class="cls-2" d="m148.59,144.42l17.77-12.54c1.1-.78,1.62-2.18.9-3.42-.64-1.09-2.31-1.68-3.42-.9l-17.77,12.54c-1.1.78-1.62,2.18-.9,3.42.64,1.09,2.31,1.68,3.42.9h0Z"/>
    <path class="cls-2" d="m157.31,139.16c5.29-4.11,10.58-8.22,15.87-12.32,1.04-.81.91-2.7,0-3.54-1.1-1.01-2.43-.86-3.54,0-5.29,4.11-10.58,8.22-15.87,12.32-1.04.81-.91,2.7,0,3.54,1.1,1.01,2.43.86,3.54,0h0Z"/>
    <path class="cls-2" d="m161.77,136.64c4.29-3.4,8.94-6.84,13.64-10.11,1.07-.75,1.67-2.22.9-3.42-.69-1.06-2.27-1.7-3.42-.9-5,3.48-9.88,7.12-14.65,10.89-1.03.82-.92,2.69,0,3.54,1.09,1,2.44.87,3.54,0h0Z"/>
    <path class="cls-2" d="m162.91,135.95c5.68-2.41,10.84-6.05,15.08-10.53.9-.95,1.01-2.6,0-3.54s-2.58-1.02-3.54,0c-1.01,1.07-2.07,2.09-3.18,3.05-.56.48-1.12.95-1.7,1.4.21-.16.03-.02-.08.06-.16.12-.33.24-.49.36-.3.22-.6.43-.9.64-2.42,1.67-5.01,3.09-7.71,4.24-1.21.51-1.56,2.38-.9,3.42.81,1.26,2.13,1.45,3.42.9h0Z"/>
    <path class="cls-2" d="m165.57,137.25c4.45-3.35,8.71-6.95,12.7-10.84.94-.91.99-2.63,0-3.54s-2.53-.97-3.54,0c-1.89,1.84-3.84,3.62-5.84,5.34-.99.85-1.99,1.68-3,2.5-.51.41-1.02.81-1.53,1.21-.12.09-.24.19-.36.28.2-.16.11-.08-.04.03-.3.23-.61.46-.91.69-.54.41-.96.81-1.15,1.49-.16.6-.09,1.4.25,1.93.66,1.03,2.3,1.74,3.42.9h0Z"/>
    <path class="cls-2" d="m164.42,136.24c5.84-2.82,11.14-6.83,15.45-11.68.87-.98,1.04-2.59,0-3.54-.95-.87-2.61-1.04-3.54,0-1.01,1.14-2.08,2.24-3.2,3.28-.56.52-1.13,1.03-1.72,1.52-.32.27-.65.54-.98.81-.13.11-.27.21-.4.32.26-.2-.11.08-.2.15-2.48,1.86-5.14,3.47-7.93,4.82-1.18.57-1.59,2.35-.9,3.42.78,1.21,2.16,1.51,3.42.9h0Z"/>
    <path class="cls-2" d="m164.26,136.62c5.82-3.23,11.31-6.98,16.49-11.16,1.02-.83.92-2.69,0-3.54-1.08-1-2.45-.88-3.54,0-4.71,3.81-10.03,7.36-15.47,10.38-1.14.64-1.62,2.3-.9,3.42s2.2,1.58,3.42.9h0Z"/>
    <path class="cls-2" d="m164.44,137.04c6.07-2.21,11.56-5.89,15.74-10.84.84-1,1.05-2.57,0-3.54-.93-.85-2.63-1.07-3.54,0s-1.93,2.15-2.99,3.13c-.53.49-1.08.96-1.64,1.42.01-.01-.5.4-.31.25s-.34.25-.32.24c-.29.22-.58.43-.88.63-1.18.82-2.42,1.58-3.7,2.25-.64.34-1.29.65-1.95.94-.04.02-.47.21-.25.11.25-.11-.32.13-.37.15-.37.15-.75.29-1.12.43-1.23.45-2.18,1.72-1.75,3.08.39,1.2,1.76,2.22,3.08,1.75h0Z"/>
    <path class="cls-2" d="m166.31,136.62c5.67-3.95,11.2-8.11,16.57-12.45,1.05-.85.88-2.65,0-3.54-1.04-1.04-2.48-.85-3.54,0-5.04,4.07-10.21,7.94-15.56,11.67-1.11.77-1.62,2.19-.9,3.42.64,1.1,2.31,1.67,3.42.9h0Z"/>
    <path class="cls-2" d="m34.85,116.03c5.71,7.41,11.62,14.64,17.78,21.68.89,1.02,2.63.91,3.54,0,1.01-1.01.89-2.52,0-3.54-5.87-6.71-11.55-13.6-17-20.67-.82-1.07-2.15-1.64-3.42-.9-1.05.61-1.73,2.34-.9,3.42h0Z"/>
    <path class="cls-2" d="m31.73,115.8c7.67,12.09,15.72,23.94,24.12,35.53.79,1.09,2.17,1.63,3.42.9,1.08-.63,1.69-2.32.9-3.42-8.4-11.59-16.45-23.45-24.12-35.53-1.72-2.71-6.05-.2-4.32,2.52h0Z"/>
    <path class="cls-2" d="m33.56,124.89c7.16,12.63,15.88,24.37,25.88,34.9,2.22,2.34,5.75-1.2,3.54-3.54-9.72-10.24-18.13-21.61-25.09-33.89-1.59-2.8-5.91-.28-4.32,2.52h0Z"/>
    <path class="cls-2" d="m36.24,129.74c7.21,12.94,16.72,24.59,27.98,34.23,1.02.88,2.53,1.01,3.54,0,.9-.9,1.03-2.65,0-3.54-10.96-9.39-20.17-20.62-27.2-33.22-1.57-2.81-5.89-.29-4.32,2.52h0Z"/>
    <path class="cls-2" d="m36.28,131.78c4.32,7.74,9.17,15.18,14.53,22.25,2.66,3.51,5.4,6.96,8.32,10.26,2.76,3.12,5.88,6.06,9.72,7.77,1.23.55,2.69.36,3.42-.9.62-1.07.34-2.87-.9-3.42-3.56-1.59-6.3-4.26-8.85-7.15-2.78-3.16-5.42-6.45-7.95-9.81-5.14-6.85-9.8-14.05-13.98-21.52-1.57-2.81-5.89-.29-4.32,2.52h0Z"/>
    <path class="cls-2" d="m38.44,139.3c8.84,12.16,18.85,23.42,29.95,33.56,2.37,2.17,5.92-1.36,3.54-3.54-10.78-9.85-20.58-20.74-29.17-32.55-.79-1.09-2.17-1.63-3.42-.9-1.08.63-1.7,2.32-.9,3.42h0Z"/>
    <path class="cls-2" d="m39.28,136.94c4.98,12.36,15.17,21.01,24.06,30.51,2.46,2.63,4.82,5.34,6.92,8.26.78,1.1,2.18,1.62,3.42.9,1.08-.63,1.69-2.32.9-3.42-7.45-10.41-17.92-18.18-25.37-28.56-2.01-2.81-3.81-5.81-5.11-9.02-.5-1.25-1.67-2.13-3.08-1.75-1.19.33-2.25,1.82-1.75,3.08h0Z"/>
    <path class="cls-2" d="m49.35,151.06c6.69,9.1,14.23,17.52,22.61,25.09,2.38,2.15,5.93-1.37,3.54-3.54-8.05-7.27-15.4-15.33-21.83-24.07-.8-1.09-2.17-1.63-3.42-.9-1.07.63-1.7,2.33-.9,3.42h0Z"/>
    <path class="cls-2" d="m21.11,109.78c5.96,11.49,13.55,22.1,22.45,31.48,2.22,2.34,5.75-1.2,3.54-3.54-8.63-9.09-15.9-19.35-21.67-30.47-1.48-2.86-5.8-.33-4.32,2.52h0Z"/>
    <path class="cls-2" d="m24.59,115.26c5.42,11.26,12.52,21.67,20.97,30.88,2.18,2.38,5.71-1.17,3.54-3.54-8.17-8.91-14.95-18.98-20.19-29.87-.59-1.22-2.32-1.54-3.42-.9-1.24.73-1.48,2.2-.9,3.42h0Z"/>
    <path class="cls-2" d="m30.01,123.58c6.87,11.41,15.41,21.8,25.29,30.73,2.38,2.15,5.93-1.37,3.54-3.54-9.59-8.66-17.85-18.65-24.51-29.72-1.66-2.75-5.98-.24-4.32,2.52h0Z"/>
    <path class="cls-2" d="m33.05,128.9c7.54,10.49,16.42,19.93,26.52,27.99,1.05.84,2.51,1.03,3.54,0,.87-.87,1.06-2.69,0-3.54-9.74-7.78-18.45-16.85-25.74-26.98-.79-1.09-2.18-1.62-3.42-.9-1.08.63-1.69,2.32-.9,3.42h0Z"/>
    <path class="cls-2" d="m11.73,79.3c3.22,0,3.22-5,0-5s-3.22,5,0,5h0Z"/>
    <path class="cls-2" d="m3.58,75.53c3.59,2.08,7.53,3.62,11.58,4.49,1.28.27,2.76-.38,3.08-1.75.29-1.26-.38-2.78-1.75-3.08-1.9-.41-3.76-.95-5.57-1.65-.21-.08-.43-.17-.64-.25-.12-.05-.24-.1-.36-.15.29.12.31.13.05.02-.42-.19-.84-.37-1.25-.57-.89-.43-1.76-.89-2.61-1.38-1.13-.65-2.79-.3-3.42.9s-.31,2.72.9,3.42h0Z"/>
    <path class="cls-2" d="m6.18,77.34c3.61,1.34,7.32,2.39,11.1,3.13,1.28.25,2.76-.36,3.08-1.75.28-1.24-.37-2.81-1.75-3.08-3.78-.74-7.49-1.78-11.1-3.13-1.23-.46-2.79.51-3.08,1.75-.32,1.42.43,2.59,1.75,3.08h0Z"/>
    <path class="cls-2" d="m14.46,80.12c4.84,1.04,9.68,2.07,14.52,3.11,1.28.27,2.76-.38,3.08-1.75.29-1.26-.38-2.78-1.75-3.08-4.84-1.04-9.68-2.07-14.52-3.11-1.28-.27-2.76.38-3.08,1.75-.29,1.26.38,2.78,1.75,3.08h0Z"/>
  </g>
</svg>